<?xml version="1.0" encoding="UTF-8" standalone="no"?>
<svg
   xmlns:dc="http://purl.org/dc/elements/1.1/"
   xmlns:cc="http://creativecommons.org/ns#"
   xmlns:rdf="http://www.w3.org/1999/02/22-rdf-syntax-ns#"
   xmlns:svg="http://www.w3.org/2000/svg"
   xmlns="http://www.w3.org/2000/svg"
   xmlns:sodipodi="http://sodipodi.sourceforge.net/DTD/sodipodi-0.dtd"
   xmlns:inkscape="http://www.inkscape.org/namespaces/inkscape"
   sodipodi:docname="jid-logo.svg"
   inkscape:version="1.0beta2 (074b463, 2020-02-02)"
   id="svg8"
   version="1.1"
   viewBox="0 0 64.333679 64.58297"
   height="64.58297mm"
   width="64.333679mm">
  <defs
     id="defs2" />
  <sodipodi:namedview
     fit-margin-bottom="0"
     fit-margin-right="0"
     fit-margin-left="0"
     fit-margin-top="0"
     inkscape:window-maximized="1"
     inkscape:window-y="-8"
     inkscape:window-x="-8"
     inkscape:window-height="1137"
     inkscape:window-width="1920"
     inkscape:object-paths="true"
     showgrid="false"
     inkscape:document-rotation="0"
     inkscape:current-layer="layer1"
     inkscape:document-units="mm"
     inkscape:cy="422.3291"
     inkscape:cx="261.00243"
     inkscape:zoom="0.57407765"
     inkscape:pageshadow="2"
     inkscape:pageopacity="0.0"
     borderopacity="1.0"
     bordercolor="#666666"
     pagecolor="#ffffff"
     id="base" />
  <metadata
     id="metadata5">
    <rdf:RDF>
      <cc:Work
         rdf:about="">
        <dc:format>image/svg+xml</dc:format>
        <dc:type
           rdf:resource="http://purl.org/dc/dcmitype/StillImage" />
        <dc:title></dc:title>
      </cc:Work>
    </rdf:RDF>
  </metadata>
  <g
     transform="translate(-55.31316,-38.193365)"
     id="layer1"
     inkscape:groupmode="layer"
     inkscape:label="Vrstva 1">
    <path
       inkscape:connector-curvature="0"
       inkscape:export-ydpi="96"
       inkscape:export-xdpi="96"
       d="m 98.239828,90.314134 v 1.4306 h 1.808282 v -1.4306 z m 18.014962,0.369974 v 2.15995 h -1.02184 v 0.907157 h 1.02184 v 4.817112 c 0,0.357766 0.0663,0.668659 0.20031,0.932726 0.14513,0.264069 0.369,0.468473 0.67034,0.613297 0.3125,0.1448 0.71987,0.21711 1.22213,0.21711 0.22323,0 0.42909,-0.009 0.61883,-0.0256 0.18975,-0.009 0.39646,-0.0256 0.61968,-0.0512 v -1.009468 c -0.11152,0.0087 -0.22877,0.01707 -0.35153,0.02559 -0.1115,0.0087 -0.21237,0.01242 -0.30166,0.01242 -0.34603,0 -0.58025,-0.05915 -0.70305,-0.178446 -0.1226,-0.127772 -0.18393,-0.336773 -0.18393,-0.626391 v -4.727274 h 1.55732 v -0.907156 h -1.55732 v -2.159956 z m -34.589524,2.057621 c -0.412972,0 -0.770369,0.06767 -1.071727,0.204027 -0.301358,0.136295 -0.558005,0.298616 -0.770075,0.486013 v -0.587711 h -1.791113 v 9.812662 h 1.791113 v -2.977249 c 0.21207,0.170361 0.452335,0.324169 0.720208,0.460459 0.267877,0.12777 0.57449,0.19152 0.920492,0.19152 0.636199,0 1.127927,-0.14065 1.473932,-0.421761 0.357163,-0.289619 0.602618,-0.664268 0.736557,-1.124255 0.133939,-0.468512 0.201097,-0.962758 0.201097,-1.482389 v -1.788716 c 3e-6,-0.22146 -0.0224,-0.485693 -0.067,-0.792327 -0.04463,-0.315189 -0.140224,-0.621496 -0.285302,-0.919638 -0.145108,-0.306656 -0.368164,-0.558379 -0.669524,-0.7543 -0.290195,-0.204442 -0.686369,-0.306335 -1.188627,-0.306335 z m 11.869923,0 c -0.714327,0 -1.277594,0.110475 -1.690565,0.331925 -0.412975,0.221471 -0.709209,0.53696 -0.887796,0.945837 -0.16741,0.408877 -0.250967,0.890013 -0.250967,1.44369 v 2.146821 c 0,0.553696 0.08356,1.034832 0.250967,1.443718 0.178585,0.408868 0.474821,0.723727 0.887796,0.945207 0.412971,0.221473 0.976238,0.332523 1.690565,0.332523 0.71433,0 1.2724,-0.11107 1.67422,-0.332523 0.412962,-0.22148 0.703185,-0.536339 0.870611,-0.945207 0.178587,-0.408886 0.268144,-0.890022 0.268144,-1.443718 v -2.146821 c 0,-0.553677 -0.08955,-1.034813 -0.268144,-1.44369 -0.167435,-0.408877 -0.457649,-0.724366 -0.870611,-0.945837 -0.40182,-0.22147 -0.95989,-0.331925 -1.67422,-0.331925 z m 10.982941,0 c -0.73665,0 -1.31712,0.110475 -1.74126,0.331925 -0.41297,0.221471 -0.7032,0.549449 -0.87062,0.983886 -0.16741,0.434428 -0.25095,0.97996 -0.25095,1.635857 v 1.686406 c 0,0.638881 0.0783,1.179807 0.2346,1.622749 0.16742,0.434436 0.45766,0.766371 0.87062,0.996375 0.41298,0.221473 0.99862,0.332523 1.75761,0.332523 0.99336,0 1.69696,-0.21296 2.10994,-0.638858 0.41297,-0.425915 0.61884,-1.009563 0.61884,-1.750665 V 97.66054 h -1.74043 v 0.447343 c 0,0.247022 -0.0285,0.464566 -0.0841,0.651962 -0.0448,0.178903 -0.13939,0.319551 -0.28449,0.421774 -0.13395,0.09367 -0.33463,0.140378 -0.60249,0.140378 -0.25672,0 -0.4694,-0.04266 -0.63683,-0.127909 -0.15626,-0.09367 -0.27339,-0.234347 -0.35151,-0.421744 -0.067,-0.187397 -0.10055,-0.429959 -0.10055,-0.7281 v -1.482379 h 3.81768 v -0.60021 c 0,-0.672915 -0.0613,-1.248022 -0.18392,-1.725057 -0.12276,-0.485538 -0.37945,-0.85623 -0.77009,-1.111784 -0.37949,-0.255574 -0.97716,-0.383085 -1.79194,-0.383085 z m 7.01484,0 c -0.7813,0 -1.37815,0.119046 -1.79108,0.357496 -0.40183,0.229993 -0.67567,0.566534 -0.82079,1.009475 -0.14499,0.434436 -0.21743,0.962864 -0.21743,1.584697 v 1.698866 c 0,0.58776 0.0673,1.103078 0.20111,1.546038 0.14498,0.442932 0.41812,0.787995 0.81994,1.035045 0.41295,0.238484 1.0158,0.358104 1.80825,0.358104 0.69204,0 1.22772,-0.0939 1.6072,-0.28137 0.39067,-0.187401 0.6585,-0.459556 0.80358,-0.817311 0.15625,-0.357748 0.23463,-0.783672 0.23463,-1.277734 v -0.511602 h -1.62353 v 0.600811 c 0,0.247031 -0.0223,0.468541 -0.067,0.664461 -0.0335,0.19591 -0.12314,0.349068 -0.26813,0.459804 -0.13404,0.102261 -0.35183,0.153488 -0.65318,0.153488 -0.40181,0 -0.68086,-0.106489 -0.83712,-0.319445 -0.15625,-0.212949 -0.23378,-0.634915 -0.23378,-1.265283 v -2.325248 c 0,-0.417401 0.0214,-0.745368 0.0663,-0.983887 0.0559,-0.24702 0.16258,-0.421859 0.31882,-0.524071 0.15626,-0.102261 0.37932,-0.152848 0.6695,-0.152848 0.26789,0 0.47455,0.04218 0.61966,0.127268 0.14516,0.08514 0.24502,0.221888 0.30083,0.409264 0.0559,0.187427 0.0842,0.443097 0.0842,0.76678 v 0.446713 h 1.62351 v -0.434244 c 0,-0.511089 -0.0723,-0.937003 -0.21744,-1.277722 -0.14515,-0.349262 -0.41292,-0.608899 -0.80358,-0.779259 -0.3795,-0.178883 -0.92121,-0.268286 -1.62436,-0.268286 z m -22.049253,0.01242 c -0.357164,0 -0.713742,0.0769 -1.070904,0.230227 -0.357167,0.153323 -0.714567,0.455673 -1.071729,0.907147 V 92.843976 H 85.54915 v 7.385084 h 1.791934 v -5.392334 c 0.223228,-0.281103 0.446294,-0.468433 0.669522,-0.562151 0.234391,-0.102238 0.491038,-0.152838 0.770075,-0.152838 0.178585,0 0.351683,0.01638 0.519103,0.05052 0.178585,0.02559 0.334484,0.05974 0.468423,0.10225 v -1.507356 c -0.06695,-0.0087 -0.12214,-0.01308 -0.16678,-0.01308 z m 8.756111,0.0898 v 7.321441 c 0,0.17037 -0.0336,0.32352 -0.100538,0.45981 -0.05575,0.13629 -0.155727,0.24277 -0.300823,0.31943 -0.145108,0.0767 -0.346591,0.11482 -0.603296,0.11482 -0.05584,0 -0.13335,-0.003 -0.233798,-0.0124 -0.100447,-0.009 -0.178817,-0.0171 -0.234636,-0.0256 v 0.98388 c 0.122777,0.034 0.267489,0.055 0.434916,0.0636 0.178576,0.0171 0.340495,0.0255 0.485591,0.0255 0.725487,0 1.294753,-0.15318 1.707715,-0.45983 0.42415,-0.30664 0.636841,-0.74964 0.636841,-1.32889 v -7.461799 z m -4.704639,0.907148 c 0.346001,0 0.58627,0.08096 0.720206,0.242696 0.145106,0.153332 0.228648,0.353179 0.25097,0.600182 0.03349,0.24705 0.05068,0.511253 0.05068,0.792358 v 2.312778 c 0,0.272591 -0.01725,0.536833 -0.05068,0.792349 -0.02233,0.247042 -0.105864,0.446879 -0.25097,0.600201 -0.133939,0.153323 -0.374205,0.230227 -0.720206,0.230227 -0.346,0 -0.59146,-0.0769 -0.736559,-0.230227 -0.145108,-0.153322 -0.233832,-0.353159 -0.267318,-0.600201 -0.02233,-0.255516 -0.03352,-0.519758 -0.03352,-0.792349 V 95.38632 c 0,-0.281105 0.01127,-0.545308 0.03352,-0.792358 0.03348,-0.247003 0.122225,-0.44685 0.267318,-0.600182 0.145107,-0.161836 0.390559,-0.242696 0.736559,-0.242696 z m 10.966581,0 c 0.30136,0 0.51842,0.05516 0.65237,0.165957 0.1451,0.102249 0.24067,0.259957 0.28529,0.472913 0.0447,0.204444 0.067,0.459494 0.067,0.766149 v 0.664431 h -2.06006 v -0.395524 c 0,-0.425915 0.0285,-0.758479 0.0841,-0.996997 0.0559,-0.24702 0.15658,-0.42186 0.30167,-0.524072 0.15626,-0.102249 0.37931,-0.152857 0.6695,-0.152857 z m -23.456156,0.06361 c 0.312513,0 0.541592,0.0769 0.686685,0.230217 0.145109,0.153332 0.23984,0.361703 0.284489,0.625771 0.04464,0.255545 0.06703,0.536853 0.06703,0.843498 v 1.788715 c 0,0.357775 -0.0164,0.685763 -0.04987,0.983905 -0.03349,0.298122 -0.117014,0.536717 -0.250968,0.715601 -0.133922,0.170369 -0.357817,0.255176 -0.670339,0.255176 -0.267873,0 -0.50732,-0.02957 -0.71939,-0.08921 -0.212065,-0.06807 -0.402368,-0.148998 -0.56979,-0.242697 V 94.19779 c 0.15626,-0.10225 0.340557,-0.191625 0.552626,-0.268286 0.212066,-0.07669 0.435132,-0.114808 0.669525,-0.114808 z"
       style="font-size:10.5833px;line-height:1.25;font-family:Oswald;-inkscape-font-specification:Oswald;stroke-width:0.365653"
       id="text56" />
    <g
       inkscape:export-ydpi="96"
       inkscape:export-xdpi="96"
       style="font-size:63.0957px;line-height:1.25;font-family:Oswald;-inkscape-font-specification:Oswald;stroke-width:1.5774"
       id="text133"
       transform="scale(0.99738635,1.0026205)"
       aria-label="JID">
      <path
         inkscape:connector-curvature="0"
         sodipodi:nodetypes="ccsccsccsccsc"
         id="path135"
         d="m 55.458108,102.50771 v -5.11075 c 1.556361,0 2.818275,-0.105159 3.785742,-0.315478 0.967467,-0.210319 1.703584,-0.588894 2.20835,-1.135723 0.546829,-0.546829 0.925403,-1.32501 1.135722,-2.334541 0.210319,-1.051595 0.315479,-2.376604 0.315479,-3.975029 L 63.148462,38.174801 H 70.21518 L 69.970119,89.76238 c -0.01399,2.944433 -0.315478,5.363135 -0.946435,7.256006 -0.630957,1.850807 -1.745648,3.238914 -3.344072,4.164314 -1.598425,0.88334 -3.86987,1.32501 -6.814336,1.32501 z"
         style="color:#000000;font-style:normal;font-variant:normal;font-weight:normal;font-stretch:normal;font-size:medium;line-height:1.25;font-family:Oswald;-inkscape-font-specification:Oswald;font-variant-ligatures:normal;font-variant-position:normal;font-variant-caps:normal;font-variant-numeric:normal;font-variant-alternates:normal;font-variant-east-asian:normal;font-feature-settings:normal;font-variation-settings:normal;text-indent:0;text-align:start;text-decoration:none;text-decoration-line:none;text-decoration-style:solid;text-decoration-color:#000000;letter-spacing:normal;word-spacing:normal;text-transform:none;writing-mode:lr-tb;direction:ltr;text-orientation:mixed;dominant-baseline:auto;baseline-shift:baseline;text-anchor:start;white-space:normal;shape-padding:0;shape-margin:0;inline-size:0;clip-rule:nonzero;display:inline;overflow:visible;visibility:visible;opacity:1;isolation:auto;mix-blend-mode:normal;color-interpolation:sRGB;color-interpolation-filters:linearRGB;solid-color:#000000;solid-opacity:1;vector-effect:none;fill:#000000;fill-opacity:1;fill-rule:nonzero;stroke:none;stroke-width:1.5774;stroke-linecap:butt;stroke-linejoin:miter;stroke-miterlimit:4;stroke-dasharray:none;stroke-dashoffset:0;stroke-opacity:1;color-rendering:auto;image-rendering:auto;shape-rendering:auto;text-rendering:auto;enable-background:accumulate;stop-color:#000000;stop-opacity:1" />
      <path
         inkscape:connector-curvature="0"
         id="path137"
         style="stroke-width:1.5774"
         d="M 78.443451,89.201057 V 38.093541 h 7.003622 v 51.107516 z" />
      <path
         inkscape:connector-curvature="0"
         id="path139"
         style="stroke-width:1.5774"
         d="M 93.712559,89.201057 V 38.093541 H 104.8174 q 5.67861,0 8.95959,1.76668 3.34407,1.703583 4.73218,5.173847 1.4512,3.470263 1.4512,8.644111 v 18.802518 q 0,5.42623 -1.4512,9.148877 -1.38811,3.722646 -4.60599,5.678612 -3.15478,1.892871 -8.51792,1.892871 z m 7.129811,-5.110751 h 4.03813 q 3.91193,0 5.55242,-1.514297 1.64049,-1.514297 1.95597,-4.416699 0.37857,-2.902402 0.37857,-7.003623 V 54.561519 q 0,-3.97503 -0.50477,-6.435762 -0.50476,-2.460732 -2.20835,-3.596455 -1.70358,-1.135722 -5.36313,-1.135722 h -3.84884 z" />
    </g>
  </g>
</svg>
